<svg width="359" height="132" viewBox="0 0 359 132" fill="none" xmlns="http://www.w3.org/2000/svg">
<path d="M43.8913 7.50497C44.6913 7.505 45.5185 7.59663 46.3806 7.78134L46.7526 7.8663L46.7585 7.86728C47.8393 8.11582 48.9449 8.23447 50.0788 8.23447C51.3037 8.23445 52.5787 8.15297 53.9069 7.9913L54.4802 7.91708C55.9715 7.71138 57.3602 7.60947 58.6413 7.60947C59.7719 7.60949 60.6282 7.7454 61.2448 7.98837V7.98935C61.4931 8.09025 61.6633 8.24078 61.778 8.44443C61.8974 8.65656 61.9743 8.95825 61.9743 9.37997C61.9743 10.2273 61.8079 10.8021 61.5485 11.17C61.2947 11.5146 61.0031 11.884 60.6725 12.2755L60.3278 12.6749L60.3268 12.6759C59.8493 13.2217 59.4559 14.0239 59.1296 15.0431L58.9938 15.4903C58.6244 16.7586 58.4538 18.6192 58.4538 21.047V46.005C58.4538 48.434 58.6247 50.3179 58.9929 51.6202V51.6192C59.3003 52.7274 59.6713 53.6178 60.1188 54.2657L60.3151 54.5284L60.319 54.5323C60.8054 55.118 61.2277 55.6036 61.5847 55.9874V55.9884C61.8115 56.2358 61.9743 56.6662 61.9743 57.3595C61.9743 57.813 61.8868 58.1502 61.7438 58.3985C61.6043 58.6409 61.3941 58.8299 61.0876 58.963C60.3761 59.2719 59.459 59.4424 58.3288 59.4425C57.117 59.4425 55.8179 59.3402 54.4216 59.1349H54.4206C52.9997 58.9244 51.7612 58.8175 50.7038 58.8175C49.9064 58.8175 49.0068 58.8781 48.0026 58.9972L46.9645 59.1349L46.9636 59.1358C45.5781 59.3411 44.2851 59.4425 43.0788 59.4425C41.9434 59.4425 41.0307 59.272 40.319 58.963C40.0126 58.8299 39.8023 58.6409 39.6628 58.3985C39.5199 58.1502 39.4324 57.8129 39.4323 57.3595C39.4323 56.7497 39.554 56.347 39.737 56.0919L39.819 55.9913L39.822 55.9884C40.1742 55.6042 40.5927 55.1171 41.071 54.5284L41.07 54.5274C41.5493 53.9485 41.9461 53.1249 42.2761 52.0811L42.4138 51.6192L42.4147 51.6183C42.7769 50.3178 42.9538 48.4355 42.9538 46.005V41.0675C42.9538 40.032 42.9486 38.9576 42.9382 37.8448L42.8913 34.3917C42.8601 32.0204 42.8493 29.669 42.8493 27.338V21.255C42.8493 20.9047 42.6221 20.6537 42.4069 20.4893L42.3161 20.4239L42.3093 20.419L42.2224 20.3692C42.0119 20.2633 41.7472 20.234 41.4929 20.3858C41.2606 20.5245 41.1302 20.7654 41.0505 20.9679L41.0446 20.9845L41.0388 21.002C40.5668 22.5111 39.8655 24.6253 38.9391 27.3419C38.4729 28.6964 37.9848 30.1216 37.4743 31.6153L35.8757 36.3018V36.3038C34.7772 39.5681 33.6473 42.8844 32.4811 46.2579C31.8977 47.9458 31.3397 49.5651 30.8083 51.1143L29.2927 55.5518L29.2897 55.5597C28.8645 56.8761 28.4559 57.8202 28.07 58.4259L27.9069 58.6651L27.903 58.669C27.5425 59.1641 26.9859 59.4424 26.1413 59.4425C25.7344 59.4425 25.3291 59.2559 24.9323 58.7657L24.7624 58.5362C24.3387 57.9112 23.9162 57.0709 23.4977 56.0089L23.3181 55.5392C22.5464 53.4308 21.7544 51.1755 20.9391 48.7755L20.1149 46.3263C19.5655 44.6546 19.0162 42.9881 18.4675 41.3282L16.8239 36.3683C16.0001 33.8931 15.2433 31.5819 14.5544 29.4395L13.8884 27.3536C13.0262 24.6423 12.3171 22.5203 11.7624 20.9962C11.7162 20.8047 11.6242 20.5557 11.4001 20.4024C11.1334 20.2201 10.8536 20.2726 10.6569 20.3643L10.5788 20.4054L10.5749 20.4073C10.3191 20.5575 9.9743 20.827 9.9743 21.255V46.005C9.9743 48.1321 10.1022 49.8634 10.3679 51.1759L10.4899 51.712L10.4909 51.7159C10.841 53.047 11.2777 54.0957 11.822 54.8214V54.8224L13.0544 56.4727L13.0563 56.4757C13.3146 56.8123 13.4743 57.2994 13.4743 57.9845C13.4743 58.5724 13.332 58.8828 13.152 59.047L13.0729 59.1085L13.0681 59.1124C12.7629 59.3197 12.3564 59.4425 11.8073 59.4425C11.1904 59.4424 10.496 59.3672 9.72919 59.213L9.39618 59.1417C8.44052 58.9281 7.58954 58.8175 6.8493 58.8175C6.20869 58.8175 5.51861 58.9026 4.77802 59.0685L4.45673 59.1446L4.45575 59.1456C3.6675 59.3451 2.92761 59.4425 2.2243 59.4425C1.75807 59.4425 1.37287 59.3273 1.04657 59.1124C0.841354 58.9728 0.661861 58.6646 0.661804 57.9845C0.661804 57.2933 0.813673 56.8051 1.06317 56.4698L1.06219 56.4688C1.40834 56.0228 1.82245 55.4749 2.29657 54.8185L2.29559 54.8175C2.76532 54.1839 3.15867 53.3044 3.487 52.2042L3.62372 51.7169L3.62469 51.7159C3.9847 50.3522 4.1618 48.4374 4.1618 46.005V21.047C4.1618 18.7691 4.00609 16.993 3.68719 15.7364L3.62177 15.4923V15.4913L3.48309 15.0411C3.15317 14.0257 2.75514 13.2251 2.26923 12.6788H2.2702C1.80633 12.1384 1.40547 11.6376 1.07294 11.1798H1.07391C0.821197 10.8126 0.661804 10.2357 0.661804 9.37997C0.661804 8.96013 0.741134 8.66143 0.863953 8.45126C0.982109 8.24913 1.15982 8.09586 1.42645 7.99228L1.42548 7.9913C2.06863 7.74456 2.91425 7.60947 3.9743 7.60947C5.09064 7.60947 6.30529 7.68739 7.612 7.84482L8.17841 7.91708C9.74842 8.12782 11.2035 8.23447 12.5368 8.23447C13.8216 8.23447 15.0167 8.14506 16.1237 7.95712L16.5934 7.87021L16.5964 7.86923C17.7755 7.62528 18.8928 7.50497 19.9538 7.50497C20.887 7.50503 21.7607 7.73359 22.5817 8.19247L22.9304 8.40341C23.7945 8.9712 24.6243 10.1682 25.3766 12.129C25.3771 12.1303 25.3781 12.1314 25.3786 12.1329C25.3824 12.1449 25.3885 12.1636 25.3962 12.1876C25.4115 12.2356 25.4339 12.3077 25.4645 12.4034C25.5259 12.5955 25.6188 12.8837 25.7419 13.2677L26.8522 16.7208L26.8532 16.7227C27.6042 19.0188 28.5196 21.7305 29.5983 24.8595L30.7311 28.128L30.7341 28.1349C30.8783 28.5308 31.0355 28.8658 31.2136 29.1104C31.3801 29.3392 31.6475 29.5996 32.03 29.5997C32.4138 29.5997 32.6818 29.3382 32.8474 29.1085C33.0241 28.8633 33.1784 28.528 33.32 28.1319L33.319 28.131C34.9708 23.5873 36.2816 19.7843 37.2429 16.7179C37.7271 15.1843 38.0912 14.0331 38.3347 13.2657C38.4563 12.8822 38.5481 12.5943 38.6091 12.4024C38.6395 12.3067 38.6622 12.2345 38.6774 12.1866C38.685 12.1627 38.6912 12.1448 38.695 12.1329C38.6958 12.1305 38.6954 12.128 38.696 12.1261C39.4334 10.1635 40.2399 8.96556 41.0651 8.39853L41.0661 8.39951C41.9582 7.79999 42.8986 7.50497 43.8913 7.50497Z" fill="#E12C2C" stroke="black"/>
<path d="M81.972 17.9216C85.9331 17.9217 89.1742 18.3764 91.7093 19.2664L92.2073 19.45L92.2083 19.4509C94.6707 20.3995 96.5864 21.5881 97.9759 23.0115L98.2474 23.2996L98.2493 23.3015C99.6063 24.7775 100.545 26.2628 101.081 27.7556L101.183 28.0545L101.184 28.0564C101.726 29.709 101.992 31.1176 101.992 32.2966C101.992 35.4078 101.085 37.9446 99.2972 39.948L98.928 40.3416L98.9271 40.3425C96.9974 42.31 94.5548 43.7902 91.5931 44.7742L90.9935 44.9636C87.7491 45.9493 84.4279 46.4421 81.0345 46.4422C79.9402 46.4422 79.063 46.8515 78.512 47.7097C78.0164 48.4646 77.8552 49.326 77.9905 50.2615L78.0218 50.45V50.4509C78.2052 51.4313 78.7783 52.277 79.6771 52.9939L79.8607 53.1355L79.8626 53.1365C80.9093 53.9068 82.3589 54.2546 84.138 54.2547C86.5017 54.2547 88.461 53.8588 89.9778 53.0213L90.2757 52.8474L90.2786 52.8455C91.6731 51.9745 92.8147 50.973 93.6995 49.8425L93.8734 49.615L93.8753 49.6121C94.7271 48.4454 95.5455 47.4221 96.3245 46.5457L96.3235 46.5447C97.0112 45.7761 97.9185 45.3797 99.097 45.3797C100.152 45.3797 100.867 45.7039 101.332 46.2761V46.2771C101.848 46.9166 102.097 47.6142 102.097 48.3797C102.097 50.4282 101.352 52.229 99.8372 53.7908L99.5237 54.1004C97.8773 55.6573 95.7084 56.9117 92.9944 57.8465L92.4456 58.0281C89.4681 58.9694 86.2488 59.4421 82.7845 59.4422C79.4349 59.4422 76.1373 58.8227 72.8939 57.572L72.2454 57.3132C69.0449 55.9939 66.3685 53.967 64.2151 51.2254L63.7913 50.6677C61.6056 47.6829 60.4925 43.7388 60.4925 38.7966C60.4925 34.6102 61.3981 30.9698 63.1966 27.8591L63.1956 27.8582C64.8948 24.9267 67.2126 22.604 70.1546 20.8845L70.7513 20.5486H70.7523C73.9704 18.8026 77.7091 17.9216 81.972 17.9216ZM81.972 22.1922C80.3767 22.1922 79.1403 23.1047 78.2415 24.7195L78.0657 25.0525C77.1533 26.8724 76.722 29.2659 76.722 32.1922C76.722 34.9408 77.1008 37.2175 77.9007 38.9871L78.0667 39.3338C78.9789 41.147 80.2729 42.1716 81.972 42.1716C83.56 42.1715 84.7958 41.2709 85.6995 39.6658L85.8763 39.3347L85.8773 39.3328C86.7843 37.5187 87.222 35.125 87.222 32.1922C87.222 29.4473 86.8375 27.1725 86.0423 25.4002L85.8773 25.0525L85.8763 25.0515L85.7005 24.7195C84.7979 23.1056 83.5627 22.1923 81.972 22.1922Z" fill="#E12C2C" stroke="black"/>
<path d="M162.534 17.9216C165.508 17.9216 167.724 18.5242 169.251 19.655L169.547 19.8884L169.548 19.8894C171.023 21.118 172.05 22.6338 172.631 24.4422L172.741 24.8074V24.8084C173.312 26.8214 173.596 28.8639 173.596 30.9422V46.0047C173.596 48.4317 173.768 50.3148 174.136 51.617V51.6179C174.485 52.879 174.902 53.8559 175.407 54.5144V54.5154C175.859 55.1115 176.285 55.6095 176.68 56.0047C176.927 56.2511 177.096 56.6723 177.096 57.3591C177.096 58.313 176.829 58.7782 176.468 58.991C175.985 59.2752 175.31 59.4422 174.409 59.4422C173.716 59.4421 172.929 59.3862 172.048 59.2713L171.136 59.1365C169.831 58.9243 168.585 58.8172 167.388 58.8172C166.555 58.8172 165.804 58.8437 165.135 58.9002L164.493 58.9675H164.487C163.698 59.0765 162.858 59.2008 161.976 59.3406C160.789 59.4559 159.863 59.2168 159.149 58.6609L159.009 58.5447C158.276 57.8991 157.889 56.9766 157.888 55.7136V38.7966C157.888 35.6815 157.6 33.213 157.001 31.4265L156.877 31.0779V31.0769L156.735 30.7371C156.388 29.9663 155.91 29.3478 155.29 28.9099C154.58 28.4088 153.721 28.1717 152.743 28.1716C151.223 28.1716 149.92 28.8109 148.84 30.0222L148.626 30.2722C148.037 30.9952 147.63 32.0433 147.366 33.3611C147.101 34.6861 146.971 36.3277 146.971 38.2761V46.0047C146.971 48.4317 147.143 50.3148 147.511 51.617V51.6179C147.818 52.7267 148.19 53.6172 148.638 54.2654L148.834 54.5291L148.837 54.533C149.323 55.1189 149.746 55.6042 150.103 55.9881V55.989C150.33 56.2365 150.493 56.6661 150.493 57.3591C150.493 58.3129 150.225 58.7782 149.864 58.991C149.383 59.2747 148.698 59.4422 147.784 59.4422C146.86 59.4421 145.768 59.3418 144.511 59.1365H144.512C143.222 58.9242 141.98 58.8172 140.784 58.8172C139.939 58.8172 139.182 58.8436 138.511 58.9002L137.868 58.9675H137.862C137.073 59.0765 136.233 59.2008 135.351 59.3406C134.164 59.4559 133.238 59.2168 132.524 58.6609L132.384 58.5447C131.651 57.8991 131.264 56.9766 131.263 55.7136V38.7966C131.263 35.6801 130.957 33.2079 130.318 31.4177L130.185 31.0681C129.817 30.1401 129.284 29.4073 128.57 28.909C127.854 28.4092 126.992 28.1716 126.013 28.1716C124.338 28.1716 122.988 28.9987 121.971 30.5359L121.771 30.8533V30.8543C121.242 31.7459 120.871 33.0549 120.628 34.7332C120.384 36.4216 120.263 38.5282 120.263 41.0466V46.0047C120.263 48.1302 120.391 49.8366 120.658 51.1004L120.781 51.614L120.782 51.6179C121.133 52.8844 121.573 53.869 122.129 54.532V54.533C122.372 54.8263 122.598 55.094 122.805 55.3357L123.369 55.9832L123.374 55.989C123.601 56.2365 123.763 56.6659 123.763 57.3591C123.763 57.8128 123.676 58.1508 123.533 58.3992C123.393 58.6413 123.183 58.8297 122.877 58.9627C122.165 59.2719 121.257 59.4422 120.138 59.4422C118.858 59.4422 117.523 59.3406 116.128 59.1355H116.129C114.707 58.9249 113.467 58.8172 112.409 58.8172C111.346 58.8172 110.102 58.9249 108.67 59.1355C107.274 59.3408 105.97 59.4422 104.763 59.4422C103.645 59.4422 102.737 59.2719 102.025 58.9627C101.719 58.8297 101.509 58.6413 101.369 58.3992C101.226 58.1508 101.138 57.8128 101.138 57.3591C101.138 56.7491 101.26 56.3466 101.443 56.0916L101.525 55.991L101.528 55.989C101.88 55.6057 102.296 55.1198 102.773 54.533C103.254 53.9539 103.651 53.128 103.982 52.0818L104.12 51.6199V51.6179C104.482 50.3175 104.659 48.4351 104.659 46.0047C104.659 42.8403 104.67 40.5659 104.701 39.1658C104.743 37.7485 104.763 36.7108 104.763 36.0466V33.8386C104.763 31.9587 104.465 30.5126 103.755 29.6463H103.754C103.151 28.9041 102.536 28.3079 101.907 27.8689H101.908C101.49 27.5701 101.243 27.0876 101.243 26.2966C101.243 25.3859 101.533 24.8913 102.002 24.6326C102.634 24.2901 103.56 23.978 104.805 23.7009L104.806 23.7019C106.109 23.42 107.667 22.9597 109.47 22.3308V22.3318L109.478 22.3279C111.69 21.5088 113.268 20.7521 114.159 20.0418L114.158 20.0408C114.995 19.3871 115.627 18.8383 116.055 18.4002C116.339 18.1156 116.835 17.9217 117.659 17.9216C118.2 17.9216 118.613 18.0431 118.927 18.2537C119.199 18.437 119.427 18.7087 119.599 19.0925L119.671 19.2644V19.2654C120.061 20.294 120.263 21.5384 120.263 23.0047V23.8386C120.264 24.3335 120.306 24.7636 120.423 25.0867C120.482 25.251 120.573 25.4214 120.718 25.5545C120.873 25.6975 121.07 25.7761 121.284 25.7761C121.62 25.7761 121.951 25.5903 122.235 25.3826C122.541 25.1593 122.888 24.8383 123.272 24.4324L123.271 24.4314C123.829 23.8509 124.517 23.204 125.333 22.4841L126.192 21.739L126.194 21.7381C127.217 20.8562 128.419 20.0623 129.807 19.3582L130.414 19.0613H130.415C132.015 18.3058 133.852 17.9216 135.93 17.9216C137.996 17.9217 139.653 18.3072 140.93 19.0427C142.094 19.7124 143.027 20.4659 143.74 21.2996L144.032 21.6619L144.034 21.6638C144.622 22.4304 145.121 23.1239 145.535 23.7488L145.922 24.3513C146.171 24.7584 146.407 25.0886 146.629 25.323C146.74 25.4405 146.86 25.547 146.989 25.6267C147.117 25.7056 147.281 25.7761 147.471 25.7761C147.839 25.7761 148.207 25.6348 148.558 25.4216C148.825 25.2601 149.102 25.0456 149.389 24.783L149.68 24.5047C150.433 23.7514 151.396 22.8402 152.56 21.7693L152.559 21.7683C153.683 20.74 155.061 19.8346 156.704 19.0613L156.705 19.0623C158.317 18.3085 160.256 17.9217 162.534 17.9216Z" fill="#E12C2C" stroke="black"/>
<path d="M197.527 17.922C204.097 17.922 209.286 19.6457 213.151 23.0382L213.521 23.3722L213.522 23.3731C217.422 26.9655 219.402 32.0475 219.402 38.6925C219.402 45.0468 217.545 49.9978 213.88 53.6065L213.52 53.9513L213.519 53.9522C209.617 57.5954 204.308 59.4425 197.527 59.4425C190.957 59.4424 185.759 57.7091 181.884 54.2882L181.514 53.9513H181.513C177.605 50.3156 175.631 45.2521 175.631 38.6925C175.631 32.2547 177.485 27.2841 181.151 23.714L181.511 23.3731L181.512 23.3722C185.424 19.7589 190.744 17.922 197.527 17.922ZM197.527 22.713C195.942 22.7131 194.708 23.5251 193.844 25.0265C193.113 26.2967 192.584 27.9365 192.247 29.921L192.114 30.7921V30.794C191.804 33.1535 191.652 35.7904 191.652 38.6925C191.652 41.1776 191.768 43.4907 192.005 45.6378L192.114 46.5479V46.5509C192.437 48.9513 193.008 50.8862 193.844 52.338C194.708 53.8391 195.942 54.6504 197.527 54.6505C199.168 54.6505 200.444 53.8496 201.315 52.338C202.153 50.8817 202.691 48.9427 202.961 46.5421C203.24 44.1452 203.381 41.5317 203.381 38.6925C203.381 36.1541 203.273 33.8198 203.059 31.6974L202.961 30.8009C202.691 28.4211 202.153 26.4825 201.315 25.0265C200.444 23.5149 199.168 22.713 197.527 22.713ZM202.881 5.44247C202.917 5.44247 203.008 5.45816 203.166 5.56552C203.283 5.6448 203.418 5.76206 203.571 5.92392L203.731 6.10165L203.733 6.10361C204.086 6.51034 204.422 6.93402 204.738 7.37607L205.048 7.82431L205.051 7.82724C205.363 8.28736 205.589 8.63841 205.737 8.88486L205.858 9.09677L205.861 9.10263C206.072 9.48336 206.114 9.84157 206.013 10.2052C205.92 10.5384 205.697 10.9102 205.302 11.3175L205.122 11.4942C204.213 12.3473 203.026 13.0889 201.545 13.714L200.894 13.9737C199.122 14.6369 197.384 14.9629 195.673 14.963C194.555 14.963 193.462 14.878 192.391 14.7003L191.934 14.6183H191.932C190.768 14.3981 189.874 13.9702 189.208 13.3536C188.977 13.1243 188.916 12.9408 188.926 12.7892L188.935 12.7257L188.936 12.7188C188.943 12.6766 188.954 12.6544 188.96 12.6446C188.965 12.6363 188.971 12.6294 188.982 12.6222C189.001 12.609 189.051 12.5847 189.154 12.5733L189.277 12.5675H189.289C191.863 12.5024 194.164 11.9573 196.182 10.9259L196.581 10.713L196.584 10.712C198.53 9.62147 200.131 8.31752 201.383 6.80576L201.629 6.50107L201.635 6.49228C201.932 6.09574 202.194 5.82324 202.417 5.65341C202.642 5.48224 202.793 5.44247 202.881 5.44247Z" fill="#E12C2C" stroke="black"/>
<path d="M249.516 17.9216C253.169 17.9216 255.35 18.6889 256.343 20.0095L256.436 20.1394C257.398 21.5592 257.488 23.72 256.48 26.7625C255.699 29.0794 255.012 30.6669 254.43 31.5672L254.316 31.7381C253.676 32.6469 253.176 32.9216 252.828 32.9216C252.389 32.9215 251.845 32.6948 251.181 32.1101L250.888 31.8367C250.051 30.99 249.132 30.1653 248.118 29.3631H248.117C247.028 28.4923 245.701 28.0672 244.162 28.0672C243.341 28.0672 242.42 28.3084 241.419 28.7498L240.985 28.9509L240.982 28.9529C239.821 29.5277 238.832 30.5163 237.998 31.8738L237.833 32.1511L237.831 32.1541C236.948 33.7089 236.537 35.8339 236.537 38.4841V46.0047C236.537 48.4335 236.708 50.3176 237.076 51.6199V51.6189C237.384 52.7271 237.755 53.6174 238.202 54.2654L238.399 54.5291L238.403 54.533C238.889 55.1187 239.311 55.6043 239.668 55.9881V55.989C239.895 56.2365 240.058 56.6659 240.058 57.3591C240.058 57.8128 239.97 58.1508 239.827 58.3992C239.688 58.6413 239.477 58.8297 239.171 58.9627C238.46 59.2716 237.543 59.4421 236.412 59.4422C235.292 59.4422 234.129 59.3647 232.922 59.2078L232.402 59.1355C230.98 58.9249 229.741 58.8172 228.683 58.8172C227.886 58.8172 226.986 58.8779 225.983 58.9968L224.944 59.1355H224.943C223.557 59.3408 222.264 59.4422 221.058 59.4422C220.065 59.4422 219.242 59.3116 218.575 59.072L218.299 58.9627C218 58.8308 217.795 58.6438 217.658 58.4021C217.518 58.1533 217.433 57.8146 217.433 57.3591C217.433 56.659 217.588 56.2289 217.807 55.9832L217.806 55.9822C218.156 55.5997 218.573 55.1169 219.047 54.533C219.528 53.9539 219.924 53.1279 220.255 52.0818L220.394 51.6199V51.6179C220.756 50.3175 220.933 48.4351 220.933 46.0047C220.933 42.8374 220.944 40.5617 220.975 39.1619L220.974 39.1609C221.015 37.746 221.037 36.71 221.037 36.0466V33.8386C221.037 32.0787 220.784 30.6987 220.177 29.8191L220.051 29.6492L220.05 29.6482L219.822 29.3748C219.289 28.7565 218.74 28.2526 218.181 27.8689H218.182C217.764 27.5701 217.516 27.0878 217.516 26.2966C217.516 25.5015 217.741 25.0235 218.122 24.742L218.294 24.6326H218.296C218.929 24.2901 219.854 23.978 221.1 23.7009L221.101 23.7019C222.241 23.4552 223.569 23.0716 225.083 22.5584L225.744 22.3308L225.752 22.3279C227.964 21.5089 229.541 20.752 230.432 20.0418L230.431 20.0408C231.268 19.3868 231.899 18.8375 232.327 18.3992L232.328 18.4002C232.612 18.1168 233.111 17.9217 233.953 17.9216C234.495 17.9216 234.904 18.0434 235.212 18.2527C235.481 18.4349 235.705 18.7051 235.873 19.0886L235.943 19.2605L235.945 19.2654C236.335 20.294 236.537 21.5384 236.537 23.0047V23.4216C236.537 24.2845 236.544 24.9364 236.562 25.3709C236.57 25.585 236.582 25.7603 236.598 25.8855C236.605 25.942 236.617 26.0199 236.641 26.0916C236.65 26.1191 236.679 26.2038 236.749 26.2849C236.788 26.3295 236.86 26.3986 236.975 26.4373C237.07 26.4694 237.167 26.4715 237.254 26.4509L237.338 26.4226L237.372 26.408L237.404 26.3894C237.475 26.3457 237.521 26.2914 237.531 26.28C237.551 26.2577 237.569 26.2341 237.584 26.2146C237.614 26.175 237.649 26.1263 237.685 26.072C237.758 25.9621 237.856 25.8079 237.977 25.6121C238.098 25.4154 238.245 25.1727 238.417 24.8845L239.01 23.8836C240.067 22.0875 241.512 20.687 243.35 19.6697L243.723 19.4715C245.762 18.4317 247.694 17.9217 249.516 17.9216Z" fill="#E12C2C" stroke="black"/>
<path d="M272.007 17.9216C272.558 17.9216 272.973 18.0438 273.284 18.2537C273.555 18.4361 273.78 18.7059 273.948 19.0886L274.017 19.2605L274.019 19.2654C274.409 20.294 274.611 21.5384 274.611 23.0047V46.0047C274.611 48.4317 274.783 50.3148 275.151 51.617V51.6179C275.458 52.7264 275.829 53.6172 276.277 54.2654L276.474 54.5291L276.477 54.533C276.72 54.8263 276.946 55.094 277.152 55.3357L277.717 55.9832L277.722 55.989C277.949 56.2365 278.111 56.6659 278.111 57.3591C278.111 57.8128 278.024 58.1508 277.881 58.3992C277.741 58.6413 277.531 58.8297 277.225 58.9627C276.513 59.2719 275.605 59.4422 274.486 59.4422C273.206 59.4422 271.871 59.3406 270.476 59.1355H270.477C269.055 58.9249 267.815 58.8172 266.757 58.8172C265.96 58.8172 265.061 58.8778 264.057 58.9968L263.018 59.1355C261.632 59.3407 260.334 59.4422 259.111 59.4422C257.993 59.4422 257.085 59.2719 256.373 58.9627C256.067 58.8297 255.857 58.6413 255.717 58.3992C255.574 58.1508 255.486 57.8128 255.486 57.3591C255.486 56.7491 255.608 56.3466 255.791 56.0916L255.873 55.991L255.876 55.989C256.227 55.6057 256.644 55.1198 257.121 54.533C257.602 53.9539 257.999 53.128 258.33 52.0818L258.468 51.6199V51.6179C258.83 50.3175 259.007 48.4351 259.007 46.0047C259.007 42.8403 259.018 40.5659 259.049 39.1658C259.091 37.7485 259.111 36.7108 259.111 36.0466V33.8386C259.111 32.0789 258.859 30.6987 258.252 29.8191L258.126 29.6492L258.125 29.6482L257.897 29.3748C257.363 28.7553 256.813 28.2499 256.253 27.866C255.837 27.567 255.591 27.0855 255.591 26.2966C255.591 25.3859 255.881 24.8913 256.35 24.6326C256.982 24.2902 257.914 23.9792 259.177 23.7019L259.176 23.7009C260.317 23.4542 261.644 23.0716 263.158 22.5584L263.819 22.3308L263.826 22.3279C266.038 21.5088 267.616 20.7521 268.507 20.0418L268.506 20.0408C269.343 19.3871 269.975 18.8383 270.402 18.4002C270.687 18.1156 271.183 17.9217 272.007 17.9216ZM269.132 0.609146C270.579 0.609146 271.725 0.90591 272.604 1.46071C273.476 2.01161 274.123 2.84177 274.536 3.98512V3.9861C275.192 5.81799 274.988 7.76298 273.842 9.8484L273.601 10.2673H273.6C272.25 12.5062 270.183 14.4049 267.367 15.9529C264.922 17.1706 262.765 17.7547 260.882 17.7547C259.471 17.7546 258.338 17.4606 257.454 16.905C256.576 16.3532 255.906 15.52 255.455 14.3718C254.838 12.4815 255.15 10.4035 256.5 8.09254C257.861 5.78536 259.936 3.88651 262.756 2.407L262.757 2.40797C265.111 1.19781 267.235 0.60922 269.132 0.609146Z" fill="#E12C2C" stroke="black"/>
<path d="M298.021 17.9216C301.742 17.9217 305.117 18.5163 308.15 19.699V19.7C310.959 20.7968 313.237 22.5771 314.988 25.0466L315.331 25.5506H315.332C317.119 28.2633 318.041 31.9993 318.041 36.8172V46.0047C318.041 48.4317 318.213 50.3148 318.58 51.617V51.6179C318.888 52.7265 319.258 53.6172 319.706 54.2654L319.903 54.5291L319.906 54.533C320.393 55.119 320.816 55.6042 321.173 55.9881V55.989C321.4 56.2366 321.562 56.6662 321.562 57.3591C321.562 58.2982 321.283 58.7635 320.884 58.9832C320.352 59.2756 319.648 59.4422 318.749 59.4422C317.876 59.4421 316.923 59.3651 315.887 59.2088L315.437 59.1365C314.175 58.9245 313.011 58.8172 311.937 58.8172C311.103 58.8172 310.341 58.8438 309.649 58.9002L308.982 58.9666L308.976 58.9675C308.15 59.0773 307.293 59.2017 306.406 59.3425C305.517 59.4506 304.736 59.3665 304.049 59.0984L303.759 58.9715H303.758C303.074 58.6419 302.658 58.0535 302.538 57.0994C302.5 56.5443 302.438 56.0628 302.344 55.6629C302.25 55.2656 302.118 54.912 301.923 54.6463H301.922C301.57 54.1656 301.095 53.8591 300.499 53.8591C299.674 53.8593 298.73 54.2899 297.689 55.0252L297.236 55.3582L297.234 55.3601C296.208 56.1586 294.993 56.9619 293.584 57.7644L292.968 58.1082L292.967 58.1091C291.368 58.9904 289.515 59.4421 287.396 59.4422C283.747 59.4422 281.104 58.4121 279.364 56.4246L279.198 56.2293C277.429 54.0504 276.541 51.4408 276.541 48.3797C276.541 44.0534 278.09 40.6586 281.188 38.1423L281.492 37.9011C284.861 35.3072 289.26 33.4209 294.707 32.2654L294.706 32.2644C297.347 31.7125 299.383 30.9927 300.769 30.0808C302.166 29.1614 302.958 28.006 302.958 26.6091C302.958 25.6329 302.557 24.7035 301.836 23.8279L301.688 23.6541C300.797 22.6345 299.31 22.1922 297.396 22.1922C295.438 22.1922 293.804 22.7201 292.528 23.8132C291.48 24.7122 290.534 25.7213 289.694 26.8367L289.341 27.3211C288.578 28.4052 287.749 29.3864 286.856 30.2683L286.47 30.6404C285.527 31.523 284.238 31.9841 282.541 31.9841C281.569 31.9841 280.724 31.6714 279.99 31.0271L279.845 30.8943L279.843 30.8914L279.704 30.7547C279.034 30.0598 278.708 29.2348 278.708 28.2547C278.708 26.2105 279.458 24.4708 280.99 23.0047L281.308 22.7146C282.986 21.2481 285.155 20.1115 287.839 19.3093L288.382 19.1541L288.383 19.1531C291.334 18.3333 294.544 17.9216 298.021 17.9216ZM301.949 35.159C301.361 34.8322 300.628 34.9598 299.868 35.2986L299.544 35.4548C298.992 35.7346 298.428 36.0258 297.85 36.3289L296.074 37.2732L296.073 37.2742C294.818 37.956 293.752 38.7948 292.891 39.8045C291.965 40.8826 291.541 42.3582 291.541 44.1511C291.541 46.0882 291.985 47.6212 292.984 48.6257L293.192 48.8201L293.196 48.824C294.292 49.754 295.596 50.2136 297.083 50.2136C298.976 50.2135 300.446 49.3876 301.428 47.7634L301.427 47.7625C302.382 46.204 302.854 44.3726 302.854 42.2966V37.3386C302.854 36.3909 302.639 35.5426 301.949 35.159Z" fill="#E12C2C" stroke="black"/>
<path d="M338.456 17.9216C341.71 17.9216 344.749 18.2835 347.574 19.0047L348.136 19.1541H348.138C350.924 19.912 353.176 21.0045 354.911 22.4256L355.251 22.7136L355.253 22.7156C357.01 24.2416 357.873 26.0759 357.873 28.2547C357.873 29.2335 357.543 30.0595 356.875 30.7556L356.736 30.8923C355.963 31.6284 355.075 31.9841 354.039 31.9841C352.448 31.9841 351.19 31.5784 350.229 30.7957L350.042 30.6345C349.104 29.7814 348.24 28.8304 347.448 27.7771L347.113 27.3191C346.2 26.0113 345.147 24.8405 343.948 23.8132C342.673 22.72 341.033 22.1922 339.081 22.1922C337.296 22.1922 335.913 22.5751 335.145 23.5095L335.001 23.7029L335 23.7048C334.371 24.637 334.039 25.6074 334.039 26.6091C334.039 28.0077 334.64 29.114 335.796 29.8884L336.034 30.0388L336.037 30.0408C337.106 30.6659 338.434 31.1898 340.017 31.6228L340.712 31.8035H340.714C342.105 32.1386 343.552 32.5035 345.055 32.8972L346.576 33.3006L346.579 33.3015C348.359 33.7678 350.056 34.3825 351.67 35.1394L352.357 35.4724C354.032 36.312 355.412 37.4653 356.499 38.9304L356.712 39.2283L356.713 39.2293C357.815 40.8039 358.393 42.908 358.393 45.5886C358.393 48.7892 357.529 51.3379 355.841 53.2771L355.492 53.657C353.528 55.6863 351.014 57.1614 347.92 58.0672C344.801 58.9802 341.504 59.4422 338.039 59.4422C336.805 59.4421 335.33 59.3102 333.605 59.0486L332.85 58.9285C331.082 58.633 329.323 58.165 327.574 57.53L326.825 57.2478C324.848 56.4773 323.222 55.4489 321.933 54.1707H321.932C320.703 52.9298 320.081 51.3582 320.081 49.4216C320.081 48.2282 320.4 47.3096 321.004 46.6131L321.129 46.4763L321.131 46.4744C321.801 45.7692 322.803 45.3797 324.226 45.3797C325.315 45.3797 326.194 45.7487 326.896 46.49L327.035 46.6433L327.037 46.6453C327.652 47.3531 328.284 48.144 328.934 49.0183L329.591 49.9197L329.594 49.9236C330.531 51.2132 331.713 52.3453 333.129 53.3318C334.615 54.3673 336.58 54.8591 338.976 54.8591C340.567 54.8591 341.894 54.7146 342.944 54.408L343.377 54.2664H343.378C343.991 54.0424 344.472 53.6575 344.793 53.1121C345.108 52.5754 345.248 51.9178 345.248 51.1716C345.248 49.9306 344.588 48.9439 343.421 48.2127L343.181 48.0691C342.097 47.4432 340.767 46.8654 339.192 46.3357L338.502 46.1111C337.119 45.6671 335.666 45.1849 334.144 44.6668L332.599 44.1365H332.598C330.789 43.517 329.07 42.7524 327.443 41.8465L326.752 41.45L326.751 41.449L326.417 41.2468C324.876 40.2871 323.582 39.0829 322.527 37.6384L322.305 37.325C321.178 35.6678 320.601 33.5496 320.601 30.9422C320.601 27.99 321.271 25.6841 322.562 23.9724L322.563 23.9734C323.805 22.3324 325.328 21.0874 327.142 20.2332L327.509 20.0681L327.51 20.0672C329.539 19.1827 331.542 18.6082 333.524 18.3338L333.523 18.3328C335.539 18.0582 337.18 17.9216 338.456 17.9216Z" fill="#E12C2C" stroke="black"/>
<path d="M35.1465 79.5718C38.8683 79.5718 42.2429 80.1664 45.2764 81.3491V81.3501C48.2715 82.5199 50.6698 84.467 52.4785 87.1997V87.2007C54.2654 89.9135 55.1875 93.6493 55.1875 98.4673V107.655C55.1875 109.78 55.3152 111.486 55.582 112.749L55.7051 113.264L55.7061 113.267C56.0135 114.376 56.3843 115.267 56.832 115.916L57.0293 116.178L57.0322 116.182C57.2761 116.476 57.5043 116.745 57.7158 116.988L58.3008 117.641C58.5264 117.889 58.6875 118.318 58.6875 119.009C58.6874 119.831 58.4739 120.29 58.1533 120.539L58.0098 120.633L58.0059 120.635C57.4871 120.925 56.7862 121.092 55.875 121.092C55.0018 121.092 54.0493 121.015 53.0127 120.859L52.5625 120.787C51.3016 120.575 50.1431 120.467 49.084 120.467C48.2383 120.467 47.4699 120.494 46.7764 120.55L46.1084 120.617L46.1016 120.618C45.6879 120.673 45.2661 120.732 44.8369 120.794L43.543 120.992C42.6498 121.102 41.8649 121.018 41.1748 120.749L40.8848 120.622L40.8838 120.621L40.7588 120.556C40.1495 120.217 39.7766 119.644 39.6641 118.75C39.6264 118.195 39.5637 117.713 39.4697 117.313C39.3764 116.916 39.2445 116.561 39.0488 116.295H39.0479C38.7063 115.807 38.2281 115.509 37.625 115.509C36.8003 115.509 35.8556 115.939 34.8145 116.674L34.3623 117.008L34.3604 117.01C33.3345 117.809 32.1193 118.611 30.71 119.414L30.0938 119.758H30.0928C28.4937 120.64 26.6408 121.092 24.5215 121.092C20.7716 121.092 18.0811 119.995 16.3447 117.879H16.3457C14.5605 115.7 13.667 113.091 13.667 110.03C13.667 105.703 15.2161 102.308 18.3135 99.7915L18.6182 99.5513C21.9866 96.9574 26.3905 95.0701 31.8535 93.9145L31.8525 93.9136C34.4863 93.3616 36.5165 92.642 37.8994 91.73C39.2936 90.8104 40.0839 89.6554 40.084 88.2593C40.084 87.2831 39.6833 86.3536 38.9619 85.478L38.8135 85.3042C37.9228 84.2845 36.4362 83.8423 34.5215 83.8423C32.6999 83.8423 31.146 84.3058 29.9004 85.2632L29.6562 85.4614L29.6543 85.4624C28.4561 86.4894 27.3966 87.6612 26.4873 88.9712C25.7244 90.0553 24.8968 91.0366 24.0039 91.9184L23.6172 92.2895C22.6573 93.1736 21.3624 93.6343 19.667 93.6343C18.6949 93.6343 17.85 93.3215 17.1162 92.6772L16.9707 92.5434L16.9688 92.5415L16.8301 92.4038C16.1597 91.709 15.834 90.8847 15.834 89.9048C15.834 87.8615 16.5871 86.1221 18.1328 84.6557L18.4521 84.3657L18.4541 84.3647C20.1321 82.8983 22.3019 81.7616 24.9854 80.9595L25.5293 80.8032H25.5303C28.4816 79.9834 31.6863 79.5718 35.1465 79.5718ZM39.0752 96.8091C38.4872 96.4822 37.7541 96.6098 36.9941 96.9487L36.667 97.1059C36.1162 97.3853 35.5527 97.6764 34.9756 97.979L33.2002 98.9233L33.1973 98.9243C32.1073 99.5214 31.1613 100.238 30.3555 101.083L30.0186 101.452L30.0166 101.454C29.0908 102.532 28.667 104.007 28.667 105.8C28.667 107.738 29.1103 109.271 30.1104 110.276L30.3184 110.47L30.3223 110.473C31.4178 111.403 32.7224 111.863 34.209 111.863C36.1022 111.863 37.5724 111.038 38.5537 109.414L38.5527 109.413C39.5079 107.854 39.9794 106.023 39.9795 103.947V98.9878C39.9794 98.0401 39.7653 97.1927 39.0752 96.8091ZM30.8125 67.0923C30.9077 67.0923 31.0613 67.1338 31.2842 67.3032C31.5061 67.4719 31.7641 67.7429 32.0557 68.1382V68.1391C33.1966 69.6876 34.7401 71.023 36.6797 72.1431L37.0723 72.3638L37.0742 72.3647C39.0862 73.4594 41.3691 74.0687 43.9131 74.1977L44.4248 74.2173H44.4375C44.6619 74.2173 44.7546 74.2581 44.7803 74.2749C44.7881 74.28 44.787 74.2802 44.7852 74.2768L44.7939 74.3218L44.7949 74.3354C44.8156 74.5229 44.7542 74.7424 44.5039 75.0044C43.906 75.5452 43.1505 75.9387 42.2158 76.1753L41.8008 76.2681L41.7979 76.269C40.6372 76.5011 39.3893 76.6128 38.042 76.6128C36.5951 76.6128 35.077 76.3496 33.4893 75.811L32.8047 75.563L32.8027 75.562L32.1299 75.2925C30.7158 74.693 29.5865 74.0016 28.7285 73.2261L28.5352 73.0454L28.3564 72.8667C27.9698 72.4608 27.7577 72.099 27.6738 71.7837C27.5947 71.486 27.6216 71.1984 27.7715 70.8999L27.8428 70.771C28.0088 70.5011 28.1612 70.2579 28.3008 70.0395L28.6836 69.4585C28.9297 69.1207 29.388 68.5125 30.0723 67.6391L30.0732 67.6401C30.4519 67.1829 30.6979 67.0924 30.8125 67.0923Z" fill="#E12C2C" stroke="black"/>
<path d="M128.507 79.5714C131.481 79.5714 133.697 80.174 135.224 81.3048L135.52 81.5382L135.521 81.5392C136.996 82.7678 138.023 84.2836 138.604 86.0919L138.714 86.4572V86.4582C139.285 88.4712 139.569 90.5137 139.57 92.5919V107.654C139.57 110.081 139.741 111.965 140.109 113.267V113.268C140.458 114.529 140.875 115.506 141.38 116.164V116.165C141.832 116.761 142.258 117.259 142.654 117.654C142.9 117.901 143.07 118.322 143.07 119.009C143.07 119.963 142.802 120.428 142.441 120.641C141.958 120.925 141.283 121.092 140.382 121.092C139.689 121.092 138.902 121.036 138.021 120.921L137.109 120.786C135.804 120.574 134.558 120.467 133.362 120.467C132.528 120.467 131.777 120.493 131.108 120.55L130.466 120.617H130.46C129.671 120.726 128.831 120.851 127.949 120.99C126.762 121.106 125.836 120.867 125.122 120.311L124.982 120.194C124.249 119.549 123.862 118.626 123.862 117.363V100.446C123.862 97.3313 123.573 94.8628 122.974 93.0763L122.85 92.7277V92.7267L122.708 92.3869C122.361 91.6161 121.883 90.9976 121.263 90.5597C120.553 90.0586 119.694 89.8215 118.716 89.8214C117.196 89.8214 115.893 90.4607 114.813 91.672L114.599 91.922C114.01 92.645 113.603 93.6931 113.339 95.0109C113.074 96.3359 112.945 97.9775 112.945 99.9259V107.654C112.945 110.081 113.116 111.965 113.484 113.267V113.268C113.791 114.376 114.163 115.267 114.611 115.915L114.807 116.179L114.81 116.183C115.296 116.769 115.719 117.254 116.076 117.638V117.639C116.303 117.886 116.466 118.316 116.466 119.009C116.466 119.963 116.198 120.428 115.837 120.641C115.356 120.924 114.671 121.092 113.757 121.092C112.833 121.092 111.741 120.992 110.484 120.786H110.485C109.195 120.574 107.953 120.467 106.757 120.467C105.912 120.467 105.155 120.493 104.484 120.55L103.841 120.617H103.835C103.046 120.726 102.206 120.851 101.324 120.99C100.137 121.106 99.2108 120.867 98.4973 120.311L98.3566 120.194C97.6236 119.549 97.2366 118.626 97.2365 117.363V100.446C97.2365 97.3299 96.9295 94.8577 96.2912 93.0675L96.1584 92.7179C95.7896 91.7899 95.2574 91.0571 94.5432 90.5587C93.8268 90.059 92.9652 89.8214 91.9865 89.8214C90.311 89.8214 88.9606 90.6485 87.9435 92.1857L87.7443 92.5031V92.5041C87.2151 93.3957 86.8435 94.7047 86.6008 96.383C86.3566 98.0714 86.2365 100.178 86.2365 102.696V107.654C86.2365 109.78 86.3641 111.486 86.631 112.75L86.7541 113.264L86.7551 113.268C87.1063 114.534 87.5463 115.519 88.1017 116.182V116.183C88.3453 116.476 88.5706 116.744 88.7775 116.985L89.342 117.633L89.3469 117.639C89.5737 117.886 89.7365 118.316 89.7365 119.009C89.7365 119.463 89.6491 119.801 89.506 120.049C89.3665 120.291 89.1561 120.479 88.8498 120.612C88.1375 120.922 87.2304 121.092 86.1115 121.092C84.8308 121.092 83.4956 120.99 82.1008 120.785H82.1017C80.6798 120.575 79.44 120.467 78.382 120.467C77.3191 120.467 76.0747 120.575 74.6428 120.785C73.2466 120.991 71.943 121.092 70.7365 121.092C69.6176 121.092 68.7105 120.922 67.9982 120.612C67.692 120.479 67.4815 120.291 67.342 120.049C67.199 119.801 67.1115 119.463 67.1115 119.009C67.1115 118.399 67.2331 117.996 67.4162 117.741L67.4982 117.641L67.5012 117.639C67.8525 117.256 68.2694 116.77 68.7463 116.183C69.2271 115.604 69.6245 114.778 69.9553 113.732L70.093 113.27V113.268C70.4551 111.967 70.632 110.085 70.632 107.654C70.632 104.49 70.643 102.216 70.674 100.816C70.7157 99.3983 70.7365 98.3605 70.7365 97.6964V95.4884C70.7365 93.6085 70.4381 92.1624 69.7277 91.296H69.7267C69.1241 90.5539 68.5094 89.9577 67.8801 89.5187H67.881C67.4629 89.2199 67.216 88.7374 67.216 87.9464C67.216 87.0357 67.5064 86.5411 67.9748 86.2824C68.6074 85.9399 69.5329 85.6277 70.7785 85.3507L70.7795 85.3517C72.0825 85.0698 73.6399 84.6095 75.4426 83.9806V83.9816L75.4514 83.9777C77.6634 83.1586 79.2413 82.4019 80.132 81.6916L80.131 81.6906C80.9676 81.0369 81.5997 80.4881 82.0275 80.0499C82.3121 79.7654 82.8079 79.5715 83.632 79.5714C84.1735 79.5714 84.5864 79.6929 84.8996 79.9035C85.1723 80.0868 85.3999 80.3585 85.5724 80.7423L85.6437 80.9142V80.9152C86.0337 81.9438 86.2365 83.1882 86.2365 84.6544V85.4884C86.2365 85.9833 86.2789 86.4134 86.3957 86.7365C86.4551 86.9008 86.5458 87.0712 86.6906 87.2042C86.8464 87.3473 87.0426 87.4258 87.257 87.4259C87.5933 87.4259 87.9239 87.2401 88.2082 87.0324C88.5137 86.8091 88.8607 86.4881 89.2453 86.0822L89.2443 86.0812C89.8021 85.5007 90.4903 84.8538 91.3058 84.1339L92.1652 83.3888L92.1672 83.3878C93.1901 82.506 94.3922 81.7121 95.7805 81.008L96.3869 80.7111H96.3879C97.9885 79.9556 99.8254 79.5714 101.904 79.5714C103.969 79.5715 105.626 79.957 106.904 80.6925C108.067 81.3622 109 82.1157 109.713 82.9494L110.005 83.3117L110.007 83.3136C110.595 84.0802 111.094 84.7737 111.508 85.3986L111.895 86.0011C112.144 86.4081 112.38 86.7384 112.602 86.9728C112.713 87.0903 112.833 87.1967 112.962 87.2765C113.09 87.3554 113.254 87.4258 113.445 87.4259C113.812 87.4259 114.18 87.2846 114.531 87.0714C114.798 86.9099 115.075 86.6954 115.362 86.4328L115.653 86.1544C116.406 85.4012 117.369 84.4899 118.533 83.4191L118.532 83.4181C119.656 82.3898 121.034 81.4844 122.677 80.7111L122.678 80.7121C124.29 79.9583 126.229 79.5715 128.507 79.5714Z" fill="#E12C2C" stroke="black"/>
<path d="M163.604 79.5714C167.565 79.5715 170.807 80.0262 173.342 80.9162L173.84 81.0998L173.841 81.1007C176.303 82.0493 178.219 83.2379 179.608 84.6613L179.88 84.9494L179.882 84.9513C181.239 86.4273 182.178 87.9126 182.714 89.4054L182.815 89.7042L182.816 89.7062C183.359 91.3588 183.625 92.7674 183.625 93.9464C183.625 97.0576 182.717 99.5944 180.93 101.598L180.56 101.991L180.559 101.992C178.63 103.96 176.187 105.44 173.225 106.424L172.626 106.613C169.381 107.599 166.06 108.092 162.667 108.092C161.573 108.092 160.695 108.501 160.144 109.36C159.649 110.114 159.488 110.976 159.623 111.911L159.654 112.1V112.101C159.838 113.081 160.411 113.927 161.309 114.644L161.493 114.785L161.495 114.786C162.542 115.557 163.991 115.904 165.77 115.904C168.134 115.904 170.093 115.509 171.61 114.671L171.908 114.497L171.911 114.495C173.306 113.624 174.447 112.623 175.332 111.492L175.506 111.265L175.508 111.262C176.36 110.095 177.178 109.072 177.957 108.195L177.956 108.194C178.644 107.426 179.551 107.029 180.729 107.029C181.785 107.03 182.499 107.354 182.965 107.926V107.927C183.48 108.566 183.729 109.264 183.729 110.029C183.729 112.078 182.985 113.879 181.47 115.441L181.156 115.75C179.51 117.307 177.341 118.561 174.627 119.496L174.078 119.678C171.1 120.619 167.881 121.092 164.417 121.092C161.067 121.092 157.77 120.472 154.526 119.222L153.878 118.963C150.677 117.644 148.001 115.617 145.848 112.875L145.424 112.318C143.238 109.333 142.125 105.389 142.125 100.446C142.125 96.26 143.03 92.6196 144.829 89.5089L144.828 89.508C146.527 86.5765 148.845 84.2538 151.787 82.5343L152.384 82.1984H152.385C155.603 80.4523 159.341 79.5714 163.604 79.5714ZM163.604 83.8419C162.009 83.8419 160.773 84.7545 159.874 86.3693L159.698 86.7023C158.786 88.5221 158.354 90.9157 158.354 93.8419C158.354 96.5906 158.733 98.8673 159.533 100.637L159.699 100.984C160.611 102.797 161.905 103.821 163.604 103.821C165.192 103.821 166.428 102.921 167.332 101.316L167.509 100.985L167.51 100.983C168.417 99.1684 168.854 96.7748 168.854 93.8419C168.854 91.0971 168.47 88.8222 167.675 87.0499L167.51 86.7023L167.509 86.7013L167.333 86.3693C166.43 84.7553 165.195 83.8421 163.604 83.8419Z" fill="#E12C2C" stroke="black"/>
<path d="M201.667 79.5714C204.921 79.5714 207.959 79.9333 210.785 80.6544L211.346 80.8039H211.348C214.135 81.5618 216.386 82.6542 218.122 84.0753L218.462 84.3634L218.464 84.3654C220.221 85.8914 221.084 87.7257 221.084 89.9044C221.084 90.8832 220.754 91.7093 220.086 92.4054L219.947 92.5421C219.174 93.2782 218.286 93.6339 217.25 93.6339C215.659 93.6339 214.4 93.2282 213.44 92.4455L213.253 92.2843C212.315 91.4312 211.451 90.4802 210.659 89.4269L210.324 88.9689C209.411 87.661 208.357 86.4903 207.159 85.463C205.883 84.3698 204.244 83.8419 202.292 83.8419C200.507 83.8419 199.124 84.2249 198.356 85.1593L198.212 85.3527L198.211 85.3546C197.582 86.2867 197.25 87.2572 197.25 88.2589C197.25 89.6575 197.851 90.7638 199.007 91.5382L199.245 91.6886L199.248 91.6906C200.317 92.3157 201.645 92.8396 203.228 93.2726L203.923 93.4533H203.925C205.316 93.7884 206.763 94.1533 208.265 94.547L209.787 94.9503L209.79 94.9513C211.57 95.4176 213.267 96.0323 214.881 96.7892L215.568 97.1222C217.242 97.9618 218.623 99.1151 219.71 100.58L219.923 100.878L219.924 100.879C221.025 102.454 221.604 104.558 221.604 107.238C221.604 110.439 220.74 112.988 219.052 114.927L218.703 115.307C216.739 117.336 214.224 118.811 211.131 119.717C208.012 120.63 204.715 121.092 201.25 121.092C200.016 121.092 198.541 120.96 196.816 120.698L196.061 120.578C194.293 120.283 192.534 119.815 190.785 119.18L190.036 118.898C188.059 118.127 186.433 117.099 185.144 115.82H185.143C183.914 114.58 183.292 113.008 183.292 111.071C183.292 109.878 183.611 108.959 184.215 108.263L184.34 108.126L184.342 108.124C185.012 107.419 186.013 107.03 187.437 107.029C188.526 107.029 189.405 107.399 190.107 108.14L190.246 108.293L190.248 108.295C190.863 109.003 191.495 109.794 192.145 110.668L192.802 111.569L192.804 111.573C193.742 112.863 194.924 113.995 196.34 114.982C197.825 116.017 199.791 116.509 202.187 116.509C203.778 116.509 205.105 116.364 206.155 116.058L206.588 115.916H206.589C207.201 115.692 207.683 115.307 208.004 114.762C208.319 114.225 208.459 113.568 208.459 112.821C208.459 111.58 207.799 110.594 206.632 109.862L206.391 109.719C205.308 109.093 203.978 108.515 202.403 107.985L201.713 107.761C200.33 107.317 198.877 106.835 197.355 106.317L195.809 105.786H195.808C193.999 105.167 192.281 104.402 190.654 103.496L189.963 103.1L189.962 103.099L189.628 102.897C188.087 101.937 186.793 100.733 185.738 99.2882L185.515 98.9748C184.389 97.3176 183.812 95.1994 183.812 92.5919C183.812 89.6398 184.482 87.3339 185.773 85.6222L185.774 85.6232C187.016 83.9821 188.539 82.7372 190.353 81.883L190.719 81.7179L190.72 81.7169C192.75 80.8325 194.753 80.258 196.735 79.9835L196.734 79.9826C198.749 79.708 200.391 79.5714 201.667 79.5714Z" fill="#E12C2C" stroke="black"/>
<path d="M242.636 79.5714C246.358 79.5715 249.733 80.1661 252.766 81.3488V81.3498C255.575 82.4466 257.853 84.2268 259.604 86.6964L259.947 87.2003H259.948C261.735 89.9131 262.657 93.6491 262.657 98.4669V107.654C262.657 110.082 262.828 111.965 263.196 113.267V113.268C263.503 114.376 263.874 115.267 264.322 115.915L264.519 116.179L264.522 116.183C265.009 116.769 265.432 117.254 265.789 117.638V117.639C266.015 117.886 266.177 118.316 266.177 119.009C266.177 119.948 265.899 120.413 265.5 120.633C264.968 120.925 264.264 121.092 263.365 121.092C262.492 121.092 261.539 121.015 260.503 120.859L260.052 120.786C258.791 120.574 257.627 120.467 256.552 120.467C255.719 120.467 254.956 120.494 254.265 120.55L253.598 120.616L253.592 120.617C252.766 120.727 251.909 120.852 251.022 120.992C250.133 121.1 249.352 121.016 248.665 120.748L248.375 120.621H248.374C247.69 120.292 247.274 119.703 247.154 118.749C247.116 118.194 247.054 117.713 246.96 117.313C246.866 116.915 246.734 116.562 246.539 116.296H246.538C246.186 115.815 245.711 115.509 245.115 115.509C244.29 115.509 243.346 115.94 242.304 116.675L241.852 117.008L241.85 117.01C240.824 117.808 239.609 118.612 238.2 119.414L237.584 119.758L237.583 119.759C235.984 120.64 234.131 121.092 232.011 121.092C228.363 121.092 225.72 120.062 223.98 118.074L223.814 117.879C222.045 115.7 221.157 113.091 221.157 110.029C221.157 105.703 222.706 102.308 225.803 99.7921L226.108 99.5509C229.477 96.957 233.876 95.0707 239.323 93.9152L239.322 93.9142C241.963 93.3623 243.998 92.6425 245.384 91.7306C246.782 90.8112 247.574 89.6558 247.574 88.2589C247.574 87.2827 247.173 86.3533 246.452 85.4777L246.303 85.3039C245.413 84.2843 243.926 83.842 242.011 83.8419C240.054 83.8419 238.42 84.3699 237.144 85.463C236.096 86.3619 235.15 87.3711 234.31 88.4865L233.957 88.9708C233.194 90.055 232.365 91.0362 231.472 91.9181L231.086 92.2902C230.142 93.1728 228.854 93.6339 227.157 93.6339C226.185 93.6339 225.34 93.3212 224.606 92.6769L224.461 92.5441L224.459 92.5412L224.32 92.4044C223.649 91.7096 223.324 90.8845 223.324 89.9044C223.324 87.8603 224.073 86.1206 225.606 84.6544L225.924 84.3644C227.602 82.8979 229.771 81.7613 232.455 80.9591L232.998 80.8039L232.999 80.8029C235.95 79.9831 239.16 79.5714 242.636 79.5714ZM246.565 96.8087C245.977 96.482 245.244 96.6096 244.484 96.9484L244.16 97.1046C243.608 97.3844 243.044 97.6756 242.466 97.9787L240.69 98.923L240.689 98.924C239.434 99.6058 238.368 100.445 237.507 101.454C236.581 102.532 236.157 104.008 236.157 105.801C236.157 107.738 236.6 109.271 237.6 110.276L237.808 110.47L237.812 110.474C238.908 111.404 240.212 111.863 241.699 111.863C243.592 111.863 245.062 111.037 246.044 109.413L246.043 109.412C246.998 107.854 247.469 106.022 247.469 103.946V98.9884C247.469 98.0407 247.255 97.1924 246.565 96.8087Z" fill="#E12C2C" stroke="black"/>
<mask id="mask0_1_302" style="mask-type:luminance" maskUnits="userSpaceOnUse" x="289" y="82" width="14" height="13">
<path d="M302.5 83.1667V94.1667H290.167V83.1667H302.5Z" fill="white" stroke="white"/>
</mask>
<g mask="url(#mask0_1_302)">
<mask id="mask1_1_302" style="mask-type:luminance" maskUnits="userSpaceOnUse" x="283" y="72" width="60" height="62">
<path d="M342.462 77.8024L338.083 132.629L284.251 128.327L288.631 73.5007L342.462 77.8024Z" fill="white" stroke="white"/>
</mask>
<g mask="url(#mask1_1_302)">
<mask id="mask2_1_302" style="mask-type:luminance" maskUnits="userSpaceOnUse" x="283" y="72" width="60" height="62">
<path d="M342.462 77.8024L338.083 132.629L284.251 128.327L288.631 73.5007L342.462 77.8024Z" fill="white" stroke="white"/>
</mask>
<g mask="url(#mask2_1_302)">
<path d="M297.765 83.6636C299.065 83.4358 300.272 84.0956 300.914 85.4976V85.4986C301.536 86.8711 301.218 88.7323 300.621 90.4214C300.182 91.6658 299.62 92.737 299.298 93.3062L299.07 93.6959L299.066 93.7017C299.009 93.7963 298.954 93.8414 298.908 93.8648C298.874 93.8824 298.827 93.8975 298.758 93.9L298.682 93.898L298.667 93.896L298.654 93.8941L298.646 93.8921L298.2 93.8082C297.559 93.6757 296.382 93.3938 295.156 92.9068C293.594 92.2867 292.08 91.3831 291.385 90.1441L291.257 89.8921L291.179 89.7085C290.814 88.7938 290.848 87.9094 291.228 87.1783C291.675 86.3417 292.351 85.8574 293.288 85.6959L293.287 85.6949C293.378 85.6796 293.454 85.6888 293.527 85.7222L293.599 85.7642L293.606 85.7681C293.679 85.8174 293.726 85.8746 293.752 85.9468L293.773 86.025L293.774 86.0347C293.796 86.1548 293.778 86.2421 293.71 86.3384C293.635 86.4463 293.556 86.4945 293.449 86.5123C292.883 86.6067 292.423 86.8867 292.103 87.3433L291.974 87.5494L291.967 87.5621C291.654 88.1674 291.703 88.8713 292.014 89.5474V89.5464C292.25 90.0669 292.662 90.5065 293.137 90.8746C293.615 91.2452 294.184 91.5639 294.77 91.8335C295.94 92.3724 297.232 92.7407 298.14 92.9459L298.509 93.0298L298.69 92.6959C299.132 91.8776 299.702 90.6632 300.065 89.4273C300.396 88.2989 300.592 87.0332 300.233 86.0396L300.153 85.8453V85.8443L300.068 85.6714C299.86 85.28 299.584 84.9571 299.241 84.7408C298.843 84.4892 298.38 84.4 297.901 84.4869L297.893 84.4888L297.886 84.4898C297.361 84.6013 296.912 84.8686 296.568 85.2857C296.232 85.6919 296.045 86.1677 296.028 86.7037H296.027C296.021 86.7897 295.996 86.8587 295.946 86.9205L295.887 86.98L295.886 86.981C295.794 87.0603 295.703 87.0892 295.588 87.0796L295.575 87.0777C295.459 87.0665 295.375 87.0245 295.297 86.9351C295.22 86.8419 295.192 86.7533 295.201 86.6343L295.202 86.6265V86.6197C295.216 86.3576 295.262 86.1005 295.341 85.8502L295.431 85.6011L295.434 85.5962C295.562 85.274 295.743 84.9785 295.974 84.7056C296.152 84.504 296.349 84.3275 296.564 84.1783L296.785 84.0377L296.79 84.0347C297.091 83.858 297.416 83.737 297.765 83.6636Z" fill="#E12C2C" stroke="black"/>
</g>
</g>
</g>
<mask id="mask3_1_302" style="mask-type:luminance" maskUnits="userSpaceOnUse" x="305" y="74" width="16" height="17">
<path d="M319.834 75.1667V90.1667H306.167V75.1667H319.834Z" fill="white" stroke="white"/>
</mask>
<g mask="url(#mask3_1_302)">
<mask id="mask4_1_302" style="mask-type:luminance" maskUnits="userSpaceOnUse" x="283" y="72" width="60" height="62">
<path d="M342.462 77.8024L338.083 132.629L284.251 128.327L288.631 73.5007L342.462 77.8024Z" fill="white" stroke="white"/>
</mask>
<g mask="url(#mask4_1_302)">
<mask id="mask5_1_302" style="mask-type:luminance" maskUnits="userSpaceOnUse" x="283" y="72" width="60" height="62">
<path d="M342.462 77.8024L338.083 132.629L284.251 128.327L288.631 73.5007L342.462 77.8024Z" fill="white" stroke="white"/>
</mask>
<g mask="url(#mask5_1_302)">
<path d="M309.509 76.3472C311.203 76.2655 312.793 77.4085 313.348 79.1743H313.349C313.385 79.2969 313.375 79.3927 313.32 79.5005C313.277 79.5785 313.224 79.6318 313.155 79.6675L313.078 79.6987L313.069 79.7017C312.987 79.7284 312.914 79.7306 312.839 79.7065L312.762 79.6733L312.754 79.6694L312.684 79.6265C312.643 79.5945 312.611 79.556 312.587 79.5093L312.557 79.4321L312.556 79.4302L312.452 79.1392C311.925 77.8334 310.793 77.2141 309.766 77.1811L309.548 77.1831C308.919 77.2152 308.364 77.4562 307.933 77.8813C307.561 78.2492 307.298 78.7361 307.146 79.3032L307.088 79.5513C306.801 80.9524 307.443 82.6054 308.253 84.0356C309.08 85.4956 310.159 86.8527 310.93 87.7134L311.178 87.9907L311.514 87.8335C312.561 87.3445 314.087 86.5165 315.421 85.4966C316.088 84.9864 316.72 84.4197 317.22 83.813C317.717 83.2089 318.106 82.5402 318.251 81.8286L318.25 81.8276C318.425 80.9666 318.325 80.1526 317.882 79.5093L317.789 79.3833L317.783 79.3765L317.583 79.1548C317.098 78.6706 316.493 78.4181 315.785 78.4067H315.786C315.672 78.4044 315.583 78.3659 315.493 78.2749C315.433 78.2071 315.399 78.1405 315.389 78.063L315.385 77.979L315.386 77.9683C315.387 77.8816 315.409 77.8123 315.458 77.7485L315.515 77.686C315.581 77.6255 315.648 77.5924 315.73 77.5815L315.818 77.5776H315.826C316.842 77.6035 317.662 77.9768 318.314 78.7163L318.442 78.8696C319.036 79.624 319.287 80.6408 319.109 81.7661L319.067 81.9927V81.9936C318.693 83.8317 316.999 85.4658 315.179 86.7143C313.834 87.6364 312.493 88.2999 311.756 88.6362L311.242 88.8608L311.237 88.8628C311.17 88.8913 311.114 88.899 311.057 88.8931L311.049 88.8921H311.04C310.961 88.8866 310.898 88.8638 310.844 88.8237L310.792 88.7778L310.785 88.771L310.4 88.3608C309.853 87.761 308.879 86.6252 308.003 85.2505C306.816 83.3895 305.897 81.225 306.271 79.3872C306.649 77.5511 307.9 76.4288 309.51 76.3481L309.509 76.3472Z" fill="#E12C2C" stroke="black"/>
</g>
</g>
</g>
<mask id="mask6_1_302" style="mask-type:luminance" maskUnits="userSpaceOnUse" x="285" y="94" width="56" height="20">
<path d="M339.834 95.1667V112.834H286.167V95.1667H339.834Z" fill="white" stroke="white"/>
</mask>
<g mask="url(#mask6_1_302)">
<mask id="mask7_1_302" style="mask-type:luminance" maskUnits="userSpaceOnUse" x="283" y="72" width="60" height="62">
<path d="M342.462 77.8024L338.083 132.629L284.251 128.327L288.631 73.5007L342.462 77.8024Z" fill="white" stroke="white"/>
</mask>
<g mask="url(#mask7_1_302)">
<mask id="mask8_1_302" style="mask-type:luminance" maskUnits="userSpaceOnUse" x="283" y="72" width="60" height="62">
<path d="M342.462 77.8024L338.083 132.629L284.251 128.327L288.631 73.5007L342.462 77.8024Z" fill="white" stroke="white"/>
</mask>
<g mask="url(#mask8_1_302)">
<path d="M295.143 96.4903C300.024 95.5809 306.316 95.3654 312.492 95.7735L313.726 95.8633C320.288 96.3897 326.984 97.649 331.971 99.4327C334.468 100.326 336.504 101.339 337.88 102.435C339.177 103.467 339.81 104.507 339.812 105.535L339.804 105.741C339.716 106.836 338.919 107.833 337.378 108.701C335.845 109.565 333.673 110.242 331.066 110.728C326.185 111.636 319.895 111.851 313.721 111.44L312.488 111.351H312.487C305.923 110.827 299.227 109.568 294.24 107.785C291.743 106.893 289.707 105.88 288.33 104.784C287.033 103.751 286.399 102.711 286.397 101.683L286.404 101.478C286.492 100.383 287.289 99.386 288.83 98.5176C290.363 97.6538 292.535 96.976 295.143 96.4903ZM313.659 96.6944C305.762 96.064 299.295 96.4925 294.76 97.4239C292.496 97.8889 290.69 98.4833 289.425 99.1485C288.793 99.4809 288.276 99.8414 287.903 100.228C287.532 100.613 287.276 101.055 287.236 101.543C287.197 102.032 287.379 102.509 287.685 102.948C287.991 103.389 288.444 103.826 289.015 104.255C290.158 105.113 291.847 105.987 294.009 106.806C298.068 108.343 303.875 109.712 311.092 110.397L312.554 110.524C320.449 111.155 326.915 110.726 331.451 109.795C333.716 109.33 335.521 108.735 336.787 108.07C337.42 107.738 337.937 107.377 338.31 106.991C338.635 106.654 338.873 106.274 338.953 105.856L338.978 105.675C339.017 105.186 338.833 104.709 338.527 104.27C338.221 103.829 337.767 103.391 337.195 102.963C336.051 102.105 334.363 101.232 332.201 100.413C328.142 98.8762 322.336 97.507 315.121 96.8223L313.659 96.6944Z" fill="#E12C2C" stroke="black"/>
</g>
</g>
</g>
<mask id="mask9_1_302" style="mask-type:luminance" maskUnits="userSpaceOnUse" x="307" y="96" width="19" height="15">
<path d="M325.167 96.5V110.167H307.5V96.5H325.167Z" fill="white" stroke="white"/>
</mask>
<g mask="url(#mask9_1_302)">
<mask id="mask10_1_302" style="mask-type:luminance" maskUnits="userSpaceOnUse" x="283" y="72" width="60" height="62">
<path d="M342.462 77.8024L338.083 132.629L284.251 128.327L288.631 73.5007L342.462 77.8024Z" fill="white" stroke="white"/>
</mask>
<g mask="url(#mask10_1_302)">
<mask id="mask11_1_302" style="mask-type:luminance" maskUnits="userSpaceOnUse" x="283" y="72" width="60" height="62">
<path d="M342.462 77.8024L338.083 132.629L284.251 128.327L288.631 73.5007L342.462 77.8024Z" fill="white" stroke="white"/>
</mask>
<g mask="url(#mask11_1_302)">
<path d="M321.76 97.092C322.292 97.0123 322.74 97.0403 323.092 97.1789L323.236 97.2453C323.66 97.4674 324.049 97.947 324.364 98.7111C324.676 99.4675 324.892 100.445 325.011 101.57C325.233 103.677 325.104 106.225 324.681 108.625L324.593 109.103L324.592 109.106C324.576 109.19 324.544 109.256 324.483 109.316L324.41 109.373C324.338 109.422 324.267 109.445 324.185 109.445L324.098 109.436C324.013 109.42 323.948 109.388 323.893 109.329L323.84 109.262L323.835 109.254L323.794 109.182C323.761 109.109 323.755 109.032 323.773 108.936L323.772 108.935C324.324 106.1 324.372 103.556 324.17 101.654C324.069 100.705 323.905 99.9019 323.704 99.2971C323.604 98.9955 323.491 98.7298 323.363 98.5158C323.258 98.3388 323.119 98.1549 322.934 98.0324L322.851 97.9836L322.751 97.9406C322.65 97.9043 322.546 97.8873 322.454 97.8801C322.324 97.8698 322.179 97.8753 322.023 97.8928C321.71 97.9277 321.321 98.017 320.863 98.175C320.06 98.4522 319.018 98.9489 317.761 99.7697L317.209 100.142L317.207 100.143C314.308 102.182 311.898 104.688 309.974 107.65L309.595 108.248L309.592 108.254C309.535 108.349 309.48 108.394 309.435 108.417C309.4 108.435 309.353 108.449 309.284 108.451L309.208 108.449H309.199C309.13 108.445 309.069 108.423 309.01 108.383C308.978 108.361 308.95 108.337 308.926 108.311L308.865 108.223C308.85 108.193 308.838 108.163 308.831 108.13L308.822 108.022C308.824 107.983 308.829 107.948 308.839 107.915L308.879 107.824C310.921 104.497 313.542 101.708 316.736 99.4553L316.735 99.4543C317.297 99.0644 318.519 98.2649 319.834 97.6916C320.493 97.4043 321.156 97.1824 321.76 97.092Z" fill="#E12C2C" stroke="black"/>
</g>
</g>
</g>
<mask id="mask12_1_302" style="mask-type:luminance" maskUnits="userSpaceOnUse" x="312" y="96" width="13" height="15">
<path d="M323.833 96.5V110.167H312.833V96.5H323.833Z" fill="white" stroke="white"/>
</mask>
<g mask="url(#mask12_1_302)">
<mask id="mask13_1_302" style="mask-type:luminance" maskUnits="userSpaceOnUse" x="283" y="72" width="60" height="62">
<path d="M342.462 77.8024L338.083 132.629L284.251 128.327L288.631 73.5007L342.462 77.8024Z" fill="white" stroke="white"/>
</mask>
<g mask="url(#mask13_1_302)">
<mask id="mask14_1_302" style="mask-type:luminance" maskUnits="userSpaceOnUse" x="283" y="72" width="60" height="62">
<path d="M342.462 77.8024L338.083 132.629L284.251 128.327L288.631 73.5007L342.462 77.8024Z" fill="white" stroke="white"/>
</mask>
<g mask="url(#mask14_1_302)">
<path d="M322.939 97.1627C323.013 97.1606 323.079 97.1743 323.156 97.2066L323.238 97.2457C323.354 97.3068 323.429 97.3748 323.485 97.4683C323.546 97.5691 323.605 97.736 323.626 98.0269C323.669 98.626 323.542 99.6148 323.124 101.285C322.514 103.605 321.763 105.882 320.869 108.109L320.477 109.061C320.438 109.151 320.391 109.21 320.327 109.251L320.257 109.286L320.248 109.29C320.166 109.324 320.092 109.333 320.014 109.316L319.934 109.29C319.843 109.251 319.785 109.204 319.744 109.139L319.709 109.07L319.705 109.061L319.68 108.981C319.668 108.929 319.668 108.879 319.68 108.827L319.705 108.747L319.706 108.745C321.45 104.554 322.408 101.083 322.702 99.2838L322.946 97.7926L321.86 98.8443C320.332 100.325 317.427 103.841 314.515 108.768C314.454 108.869 314.395 108.916 314.348 108.941C314.312 108.959 314.264 108.975 314.195 108.977L314.119 108.975H314.111C314.079 108.973 314.048 108.966 314.018 108.956L313.927 108.91C313.891 108.885 313.862 108.86 313.839 108.835L313.782 108.754C313.752 108.697 313.736 108.629 313.735 108.545C313.737 108.51 313.741 108.477 313.75 108.446L313.79 108.356L313.796 108.346C315.459 105.505 317.34 102.813 319.433 100.271L319.432 100.27C320.895 98.5242 321.798 97.7145 322.378 97.3707C322.66 97.2037 322.835 97.1657 322.939 97.1627Z" fill="#E12C2C" stroke="black"/>
</g>
</g>
</g>
<mask id="mask15_1_302" style="mask-type:luminance" maskUnits="userSpaceOnUse" x="320" y="76" width="17" height="24">
<path d="M335.833 76.5V99.5H320.833V76.5H335.833Z" fill="white" stroke="white"/>
</mask>
<g mask="url(#mask15_1_302)">
<mask id="mask16_1_302" style="mask-type:luminance" maskUnits="userSpaceOnUse" x="283" y="72" width="60" height="62">
<path d="M342.462 77.8024L338.083 132.629L284.251 128.327L288.631 73.5007L342.462 77.8024Z" fill="white" stroke="white"/>
</mask>
<g mask="url(#mask16_1_302)">
<mask id="mask17_1_302" style="mask-type:luminance" maskUnits="userSpaceOnUse" x="283" y="72" width="60" height="62">
<path d="M342.462 77.8024L338.083 132.629L284.251 128.327L288.631 73.5007L342.462 77.8024Z" fill="white" stroke="white"/>
</mask>
<g mask="url(#mask17_1_302)">
<path d="M332.505 77.5024V77.5034C332.75 77.5262 332.984 77.583 333.209 77.6743L333.43 77.7768C333.719 77.9276 333.969 78.1292 334.177 78.3754V78.3764C334.335 78.5672 334.461 78.7728 334.554 78.9936L334.636 79.2192L334.638 79.2251C334.713 79.4583 334.751 79.6954 334.753 79.936L334.742 80.1772C334.711 80.5074 334.624 80.8142 334.473 81.102L334.464 81.1157L324.393 99.1225C324.335 99.2247 324.278 99.273 324.23 99.2983C324.183 99.3235 324.11 99.3448 323.993 99.3354L323.954 99.8178L323.993 99.3344H323.988C323.959 99.3324 323.927 99.326 323.895 99.3149L323.796 99.2661C323.74 99.2307 323.695 99.1811 323.661 99.1186C323.625 99.0488 323.612 98.9891 323.614 98.9282L323.615 98.9194V98.9116C323.615 98.8743 323.619 98.8409 323.627 98.81L323.663 98.7241L323.666 98.7182L333.733 80.7231L333.741 80.7094C333.946 80.3133 333.986 79.8901 333.852 79.4643H333.851C333.733 79.0866 333.507 78.7931 333.192 78.5883L333.051 78.5063C332.706 78.3239 332.334 78.2714 331.962 78.351L331.802 78.393C331.436 78.5089 331.136 78.7289 330.926 79.0522L330.842 79.1967L330.837 79.2075L321.784 97.7202C321.739 97.8073 321.687 97.8631 321.621 97.8999L321.548 97.9311L321.539 97.934C321.43 97.9717 321.339 97.9678 321.228 97.9165C321.144 97.8723 321.089 97.8211 321.053 97.7553L321.022 97.6831L321.018 97.6713L320.997 97.5903C320.988 97.5378 320.991 97.4883 321.004 97.4389L321.033 97.3657L330.1 78.8237L330.105 78.8149C330.256 78.5261 330.453 78.2813 330.705 78.0678C330.895 77.91 331.1 77.7829 331.321 77.6899L331.547 77.6088L331.553 77.6069C331.858 77.5096 332.175 77.4768 332.505 77.5024Z" fill="#E12C2C" stroke="black"/>
</g>
</g>
</g>
<mask id="mask18_1_302" style="mask-type:luminance" maskUnits="userSpaceOnUse" x="285" y="100" width="56" height="32">
<path d="M339.834 100.5V131.5H286.167V100.5H339.834Z" fill="white" stroke="white"/>
</mask>
<g mask="url(#mask18_1_302)">
<mask id="mask19_1_302" style="mask-type:luminance" maskUnits="userSpaceOnUse" x="283" y="72" width="60" height="62">
<path d="M342.462 77.8024L338.083 132.629L284.251 128.327L288.631 73.5007L342.462 77.8024Z" fill="white" stroke="white"/>
</mask>
<g mask="url(#mask19_1_302)">
<mask id="mask20_1_302" style="mask-type:luminance" maskUnits="userSpaceOnUse" x="283" y="72" width="60" height="62">
<path d="M342.462 77.8024L338.083 132.629L284.251 128.327L288.631 73.5007L342.462 77.8024Z" fill="white" stroke="white"/>
</mask>
<g mask="url(#mask20_1_302)">
<path d="M286.849 101.097C286.946 101.105 287.017 101.132 287.076 101.181L287.133 101.238L287.138 101.244C287.193 101.309 287.225 101.377 287.234 101.462L287.235 101.553C287.199 102.038 287.381 102.512 287.684 102.949C287.991 103.39 288.444 103.827 289.016 104.256C290.159 105.113 291.847 105.987 294.009 106.805C298.068 108.342 303.874 109.713 311.092 110.397L312.554 110.524C320.449 111.155 326.915 110.726 331.451 109.795C333.716 109.33 335.522 108.735 336.788 108.07C337.42 107.738 337.938 107.377 338.31 106.991C338.682 106.606 338.938 106.165 338.977 105.677C338.987 105.557 339.03 105.47 339.121 105.39C339.19 105.333 339.26 105.303 339.339 105.296L339.422 105.295L339.423 105.296C339.519 105.304 339.59 105.33 339.649 105.38L339.705 105.435C339.764 105.506 339.796 105.577 339.804 105.657V105.743C339.737 106.613 339.62 107.481 339.467 108.346C339.308 109.208 339.113 110.063 338.873 110.905C338.693 111.538 338.49 112.165 338.264 112.781L338.03 113.394L338.029 113.395C337.707 114.214 337.349 115.012 336.95 115.794C336.651 116.376 336.329 116.95 335.988 117.511L335.641 118.068C335.167 118.808 334.656 119.519 334.113 120.211C333.707 120.724 333.28 121.224 332.835 121.71L332.384 122.19C331.928 122.661 331.455 123.115 330.964 123.554L330.467 123.99C329.968 124.416 329.452 124.824 328.922 125.213L328.387 125.595C327.85 125.966 327.296 126.321 326.73 126.657L326.161 126.986C325.587 127.308 325.001 127.607 324.405 127.883L323.807 128.15L323.804 128.152C323.202 128.417 322.591 128.657 321.973 128.876L321.35 129.087C320.723 129.29 320.091 129.467 319.454 129.623L318.813 129.772C318.17 129.914 317.524 130.03 316.874 130.122L316.223 130.207C315.566 130.284 314.911 130.337 314.256 130.365L313.6 130.386H313.598C312.939 130.401 312.283 130.391 311.628 130.354L310.974 130.309C310.099 130.238 309.229 130.125 308.37 129.971H308.371C307.721 129.852 307.078 129.713 306.442 129.55L305.808 129.379C304.965 129.138 304.137 128.857 303.318 128.535C302.499 128.213 301.702 127.854 300.92 127.456H300.921C300.338 127.157 299.764 126.835 299.203 126.492L298.646 126.142L298.644 126.141L298.097 125.781C297.734 125.536 297.377 125.281 297.027 125.018L296.508 124.618C295.989 124.207 295.489 123.782 295.007 123.34L294.53 122.89L294.528 122.889L294.06 122.428C293.752 122.116 293.452 121.797 293.159 121.47L292.724 120.972C292.299 120.475 291.893 119.96 291.506 119.428L291.124 118.891C290.623 118.17 290.158 117.428 289.728 116.662H289.727C289.409 116.09 289.109 115.504 288.832 114.91L288.563 114.311L288.562 114.309L288.306 113.705C288.139 113.3 287.983 112.89 287.838 112.476L287.627 111.851C287.427 111.225 287.248 110.594 287.091 109.956L286.941 109.314V109.313L286.808 108.673C286.725 108.243 286.653 107.812 286.592 107.377L286.507 106.723V106.722C286.43 106.07 286.377 105.415 286.349 104.761L286.328 104.106V104.103L286.321 103.445C286.323 102.788 286.351 102.134 286.404 101.479C286.414 101.361 286.456 101.275 286.545 101.196C286.615 101.137 286.686 101.105 286.766 101.097H286.849ZM287.182 104.922C287.252 106.283 287.428 107.636 287.709 108.97L287.836 109.541C288.147 110.871 288.565 112.167 289.08 113.43L289.307 113.97L289.307 113.971C289.934 115.404 290.677 116.769 291.549 118.065C292.31 119.198 293.153 120.267 294.082 121.267L294.485 121.692C295.438 122.672 296.459 123.572 297.554 124.389L298.027 124.735C299.138 125.53 300.306 126.231 301.526 126.839L302.053 127.094C303.465 127.757 304.931 128.294 306.44 128.692V128.691C307.76 129.044 309.1 129.288 310.455 129.428L311.037 129.483H311.039C312.4 129.59 313.761 129.591 315.122 129.486L315.706 129.435H315.707C317.261 129.276 318.785 128.983 320.288 128.548L320.289 128.549C321.792 128.118 323.242 127.555 324.64 126.859L324.639 126.858C326.04 126.163 327.367 125.351 328.616 124.416L328.617 124.417C329.713 123.599 330.737 122.704 331.69 121.728L332.095 121.305L332.096 121.303C333.024 120.301 333.872 119.236 334.636 118.103L334.957 117.614C335.802 116.302 336.519 114.921 337.113 113.477C337.708 112.032 338.165 110.544 338.494 109.016L338.743 107.86L337.74 108.487C335.534 109.866 331.781 110.796 327.253 111.269C323.027 111.711 318.188 111.752 313.436 111.422L312.488 111.35H312.487C307.435 110.949 302.299 110.109 297.924 108.928C293.529 107.742 289.97 106.23 288.011 104.519L287.123 103.744L287.182 104.922Z" fill="#E12C2C" stroke="black"/>
</g>
</g>
</g>
</svg>
